# xmcd CD database file
#
# Track frame offsets:
#	150
#	23715
#	51374
#	73574
#	85965
#	120930
#	157208
#	179198
#	200863
#	232703
#	255453
#	274157
#	293311
#
# Disc length: 4190 seconds
#
# Revision: 1
# Processed by: cddbd v1.5.2PL0 Copyright (c) Steve Scherf et al.
# Submitted via: CDex 1.51
#
DISCID=b6105c0d
DTITLE=Various Artist - Kind of Blue
DYEAR=2007
DGENRE=Jazz
TTITLE0=Brother Go To Mothers
TTITLE1=Oleo
TTITLE2=(I Love You) For Sentimental Reasons
TTITLE3=Que Sera
TTITLE4=Mulher Redeira
TTITLE5=Invention 4, BWV 775
TTITLE6=Agua De Beber
TTITLE7=Let's Fall In Love
TTITLE8=Minor Swing
TTITLE9=Michelangelo '70
TTITLE10=Sanfona
TTITLE11=Summertime
TTITLE12=Unforgettable
EXTD=YEAR: 2007
EXTT0=
EXTT1=
EXTT2=
EXTT3=
EXTT4=
EXTT5=
EXTT6=
EXTT7=
EXTT8=
EXTT9=
EXTT10=
EXTT11=
EXTT12=
PLAYORDER=
